<svg width="48" height="48" viewBox="0 0 48 48" fill="none" xmlns="http://www.w3.org/2000/svg">
<path fill-rule="evenodd" clip-rule="evenodd" d="M23.7651 14.8837C24.0921 15.5814 23.952 17.0232 24.0454 18C24.1855 18.9767 24.419 19.6744 24.7926 20.5581C25.8668 22.9767 27.0811 24.6511 28.4356 26.4651C29.6032 27.9999 31.4246 30.1395 31.1444 32.9767C30.9576 34.7441 29.2762 37.3953 28.6691 39.8139C27.8751 43.0697 27.9685 44.8836 28.8092 47.9999H39.3176C39.0374 40.6976 36.6088 38.9301 36.1418 36.7906C34.9275 30.9302 42.8205 33.9069 43.1007 47.9999H43.8947C44.0348 45.5813 44.7353 43.9534 44.4084 41.2092C42.5402 25.3953 30.6307 28.279 25.7267 17.7209C25.1196 16.3721 24.6058 13.3488 23.9987 12.5581L23.7651 14.8837Z" fill="#1C53A3"/>
<path fill-rule="evenodd" clip-rule="evenodd" d="M4.3828 47.9999H5.03666C5.13007 44.6045 5.59711 41.9534 6.5779 39.0697C7.13835 37.5813 9.28675 32.8836 11.4351 34.372C13.2566 35.8604 10.7813 39.1162 10.1741 40.7441C9.38015 42.9301 8.8197 45.5813 8.773 47.9999H19.2347C22.0837 40.6976 16.7594 35.8604 16.9462 31.9069C17.0864 28.465 21.3364 25.5813 23.9519 18.9302C24.1387 19.1162 24.559 19.2558 24.7926 20.5581C24.4189 19.6744 24.1854 18.9767 24.0453 18C23.9519 17.0232 24.2321 13.3023 23.9986 12.5581C23.5782 13.2093 23.1112 16.4186 22.7843 17.2093C20.776 21.8604 18.3941 23.2558 14.4709 25.8139C13.0698 26.7441 11.7154 27.6278 10.5478 28.5116C4.75643 32.9767 2.56133 38.7906 4.3828 47.9999Z" fill="#5DA6DB"/>
<path fill-rule="evenodd" clip-rule="evenodd" d="M21.103 17.2093C20.636 15.7209 19.6085 14.6977 20.5426 12.5581C22.1305 9.02325 26.8476 10 27.735 12.9302C28.3889 15.1628 27.3147 16.093 26.5674 17.4418C31.9851 16.9767 33.1527 5.11629 24.6058 4.3721C20.9162 4.09303 18.3475 6.51163 17.4601 9.16279C16.2925 12.5581 18.5343 16.9302 21.103 17.2093Z" fill="#FFB156"/>
<path fill-rule="evenodd" clip-rule="evenodd" d="M46.3232 31.8606C48.7052 31.4885 49.0321 27.2094 44.0814 26.2327C39.2242 25.256 41.4193 22.7908 38.7104 20.6048C38.2901 20.2792 37.2159 19.7676 37.0291 19.5815C36.4686 18.9304 36.889 18.4653 35.9549 17.9071C34.2735 16.8839 32.6389 17.6746 32.2186 19.349C30.3504 27.535 35.4412 22.6048 35.8615 22.4187C37.8698 23.7211 36.5621 26.4187 40.8121 28.9304C42.727 28.4652 39.2242 29.4885 41.3726 28.6978L41.7929 28.5583C44.8754 27.628 47.6777 28.9304 46.3232 31.8606Z" fill="#1C53A3"/>
<path fill-rule="evenodd" clip-rule="evenodd" d="M7.41874 28.9302C8.81987 27.6279 9.42702 27.7675 10.221 25.9535C10.8749 24.5116 10.8749 23.6744 11.9958 22.3256C13.3502 22.7907 14.004 24.8372 15.5453 23.721C16.8063 22.7442 16.5728 17.4884 13.6771 17.4419C11.5287 17.4419 11.8089 18.5582 11.0617 19.4419C10.4078 20.1861 9.28691 20.2326 8.44623 21.5349C6.62477 24.3721 8.1193 25.3023 3.82251 26.2326C1.4406 26.7442 -1.40836 29.0698 0.786737 31.4419C1.67412 30.3721 1.06696 27.6744 5.45716 28.3721L7.41874 28.9302Z" fill="#5DA6DB"/>
<path fill-rule="evenodd" clip-rule="evenodd" d="M17.9271 5.72109C17.8804 4.88388 17.6936 5.06993 17.1332 4.32574C16.4793 3.349 16.6194 3.349 15.3584 3.44202C15.6386 4.65132 16.6661 5.81411 17.9271 5.72109Z" fill="#FFC889"/>
<path fill-rule="evenodd" clip-rule="evenodd" d="M29.79 5.44203C30.2571 5.25598 30.9576 5.02342 31.4714 4.79086C32.4055 4.32575 32.3121 4.27924 32.4989 3.20947C30.8175 3.7211 29.9769 3.81412 29.79 5.44203Z" fill="#FFC889"/>
<path fill-rule="evenodd" clip-rule="evenodd" d="M31.4712 8.65089C31.9382 8.51135 32.6388 8.23228 33.1525 7.99972C34.0866 7.58112 33.9932 7.4881 34.2267 6.46484C32.4987 6.92996 31.658 7.02298 31.4712 8.65089Z" fill="#FFC889"/>
<path fill-rule="evenodd" clip-rule="evenodd" d="M16.2924 8.97691C16.0122 8.32575 16.199 8.60482 15.732 8.18622C15.6853 8.1397 15.1248 7.76761 15.0781 7.76761C14.1907 7.3025 14.2375 7.3025 13.21 7.58157C13.677 8.79087 15.1248 9.02342 16.2924 8.97691Z" fill="#FFC889"/>
<path fill-rule="evenodd" clip-rule="evenodd" d="M20.5891 3.48858C20.5424 1.81417 20.6825 1.02347 19.188 0.465332C19.2814 2.13975 19.0012 2.97695 20.5891 3.48858Z" fill="#FFC889"/>
<path fill-rule="evenodd" clip-rule="evenodd" d="M27.0343 3.20939C27.6414 2.93032 27.6882 2.88381 28.2486 2.37218C29.136 1.53497 28.9025 1.81404 28.9492 0.511719C27.7349 1.02335 26.9876 1.58148 27.0343 3.20939Z" fill="#FFC889"/>
<path fill-rule="evenodd" clip-rule="evenodd" d="M23.8584 2.69767C24.3255 2.4186 24.3255 2.37209 24.6524 1.86046C25.1194 0.976742 25.026 1.30232 24.4656 0C23.4848 0.511627 23.0177 1.06977 23.8584 2.69767Z" fill="#FFC889"/>
</svg>
