<svg width="212" height="23" viewBox="0 0 212 23" fill="none" xmlns="http://www.w3.org/2000/svg">
<path d="M0.388184 22V2.4H4.64418L10.8882 14.832L17.0482 2.4H21.3042V22H17.7202V8.476L12.2602 19.2H9.43218L3.97218 8.476V22H0.388184Z" fill="black"/>
<path d="M29.8109 22.336C28.6163 22.336 27.6363 22.1493 26.8709 21.776C26.1056 21.384 25.5363 20.8707 25.1629 20.236C24.7896 19.6013 24.6029 18.9013 24.6029 18.136C24.6029 16.848 25.1069 15.8027 26.1149 15C27.1229 14.1973 28.6349 13.796 30.6509 13.796H34.1789V13.46C34.1789 12.508 33.9083 11.808 33.3669 11.36C32.8256 10.912 32.1536 10.688 31.3509 10.688C30.6229 10.688 29.9883 10.8653 29.4469 11.22C28.9056 11.556 28.5696 12.06 28.4389 12.732H24.9389C25.0323 11.724 25.3683 10.8467 25.9469 10.1C26.5443 9.35333 27.3096 8.784 28.2429 8.392C29.1763 7.98133 30.2216 7.776 31.3789 7.776C33.3576 7.776 34.9163 8.27067 36.0549 9.26C37.1936 10.2493 37.7629 11.6493 37.7629 13.46V22H34.7109L34.3749 19.76C33.9643 20.5067 33.3856 21.1227 32.6389 21.608C31.9109 22.0933 30.9683 22.336 29.8109 22.336ZM30.6229 19.536C31.6496 19.536 32.4429 19.2 33.0029 18.528C33.5816 17.856 33.9456 17.0253 34.0949 16.036H31.0429C30.0909 16.036 29.4096 16.2133 28.9989 16.568C28.5883 16.904 28.3829 17.324 28.3829 17.828C28.3829 18.3693 28.5883 18.7893 28.9989 19.088C29.4096 19.3867 29.9509 19.536 30.6229 19.536Z" fill="black"/>
<path d="M43.1151 5.956C42.4618 5.956 41.9204 5.76 41.4911 5.368C41.0804 4.976 40.8751 4.48133 40.8751 3.884C40.8751 3.28667 41.0804 2.80133 41.4911 2.428C41.9204 2.036 42.4618 1.84 43.1151 1.84C43.7684 1.84 44.3004 2.036 44.7111 2.428C45.1404 2.80133 45.3551 3.28667 45.3551 3.884C45.3551 4.48133 45.1404 4.976 44.7111 5.368C44.3004 5.76 43.7684 5.956 43.1151 5.956ZM41.3231 22V8.112H44.9071V22H41.3231Z" fill="black"/>
<path d="M54.8359 22C53.3799 22 52.2133 21.6453 51.3359 20.936C50.4586 20.2267 50.0199 18.9667 50.0199 17.156V11.108H47.6399V8.112H50.0199L50.4399 4.388H53.6039V8.112H57.3559V11.108H53.6039V17.184C53.6039 17.856 53.7439 18.3227 54.0239 18.584C54.3226 18.8267 54.8266 18.948 55.5359 18.948H57.2719V22H54.8359Z" fill="black"/>
<path d="M60.4331 22V8.112H63.6251L63.9611 10.716C64.4651 9.82 65.1464 9.11067 66.0051 8.588C66.8824 8.04667 67.9091 7.776 69.0851 7.776V11.556H68.0771C67.2931 11.556 66.5931 11.6773 65.9771 11.92C65.3611 12.1627 64.8758 12.5827 64.5211 13.18C64.1851 13.7773 64.0171 14.608 64.0171 15.672V22H60.4331Z" fill="black"/>
<path d="M73.4667 5.956C72.8133 5.956 72.272 5.76 71.8427 5.368C71.432 4.976 71.2267 4.48133 71.2267 3.884C71.2267 3.28667 71.432 2.80133 71.8427 2.428C72.272 2.036 72.8133 1.84 73.4667 1.84C74.12 1.84 74.652 2.036 75.0627 2.428C75.492 2.80133 75.7066 3.28667 75.7066 3.884C75.7066 4.48133 75.492 4.976 75.0627 5.368C74.652 5.76 74.12 5.956 73.4667 5.956ZM71.6747 22V8.112H75.2587V22H71.6747Z" fill="black"/>
<path d="M85.7554 22V2.4H90.0114L96.2554 14.832L102.415 2.4H106.671V22H103.087V8.476L97.6274 19.2H94.7994L89.3394 8.476V22H85.7554Z" fill="black"/>
<path d="M115.178 22.336C113.983 22.336 113.003 22.1493 112.238 21.776C111.473 21.384 110.903 20.8707 110.53 20.236C110.157 19.6013 109.97 18.9013 109.97 18.136C109.97 16.848 110.474 15.8027 111.482 15C112.49 14.1973 114.002 13.796 116.018 13.796H119.546V13.46C119.546 12.508 119.275 11.808 118.734 11.36C118.193 10.912 117.521 10.688 116.718 10.688C115.99 10.688 115.355 10.8653 114.814 11.22C114.273 11.556 113.937 12.06 113.806 12.732H110.306C110.399 11.724 110.735 10.8467 111.314 10.1C111.911 9.35333 112.677 8.784 113.61 8.392C114.543 7.98133 115.589 7.776 116.746 7.776C118.725 7.776 120.283 8.27067 121.422 9.26C122.561 10.2493 123.13 11.6493 123.13 13.46V22H120.078L119.742 19.76C119.331 20.5067 118.753 21.1227 118.006 21.608C117.278 22.0933 116.335 22.336 115.178 22.336ZM115.99 19.536C117.017 19.536 117.81 19.2 118.37 18.528C118.949 17.856 119.313 17.0253 119.462 16.036H116.41C115.458 16.036 114.777 16.2133 114.366 16.568C113.955 16.904 113.75 17.324 113.75 17.828C113.75 18.3693 113.955 18.7893 114.366 19.088C114.777 19.3867 115.318 19.536 115.99 19.536Z" fill="black"/>
<path d="M126.55 22V8.112H129.714L129.994 10.464C130.424 9.64267 131.04 8.98933 131.842 8.504C132.664 8.01867 133.625 7.776 134.726 7.776C136.444 7.776 137.778 8.31733 138.73 9.4C139.682 10.4827 140.158 12.0693 140.158 14.16V22H136.574V14.496C136.574 13.3013 136.332 12.3867 135.846 11.752C135.361 11.1173 134.605 10.8 133.578 10.8C132.57 10.8 131.74 11.1547 131.086 11.864C130.452 12.5733 130.134 13.5627 130.134 14.832V22H126.55Z" fill="black"/>
<path d="M149.969 22.336C148.663 22.336 147.496 22.0187 146.469 21.384C145.443 20.7493 144.631 19.8813 144.033 18.78C143.436 17.6787 143.137 16.428 143.137 15.028C143.137 13.628 143.436 12.3867 144.033 11.304C144.631 10.2027 145.443 9.344 146.469 8.728C147.496 8.09333 148.663 7.776 149.969 7.776C151.015 7.776 151.929 7.972 152.713 8.364C153.497 8.756 154.132 9.30667 154.617 10.016V1.84H158.201V22H155.009L154.617 20.012C154.169 20.628 153.572 21.1693 152.825 21.636C152.097 22.1027 151.145 22.336 149.969 22.336ZM150.725 19.2C151.883 19.2 152.825 18.8173 153.553 18.052C154.3 17.268 154.673 16.2693 154.673 15.056C154.673 13.8427 154.3 12.8533 153.553 12.088C152.825 11.304 151.883 10.912 150.725 10.912C149.587 10.912 148.644 11.2947 147.897 12.06C147.151 12.8253 146.777 13.8147 146.777 15.028C146.777 16.2413 147.151 17.24 147.897 18.024C148.644 18.808 149.587 19.2 150.725 19.2Z" fill="black"/>
<path d="M161.851 22V8.112H165.043L165.379 10.716C165.883 9.82 166.564 9.11067 167.423 8.588C168.3 8.04667 169.327 7.776 170.503 7.776V11.556H169.495C168.711 11.556 168.011 11.6773 167.395 11.92C166.779 12.1627 166.294 12.5827 165.939 13.18C165.603 13.7773 165.435 14.608 165.435 15.672V22H161.851Z" fill="black"/>
<path d="M177.741 22.336C176.546 22.336 175.566 22.1493 174.801 21.776C174.035 21.384 173.466 20.8707 173.093 20.236C172.719 19.6013 172.533 18.9013 172.533 18.136C172.533 16.848 173.037 15.8027 174.045 15C175.053 14.1973 176.565 13.796 178.581 13.796H182.109V13.46C182.109 12.508 181.838 11.808 181.297 11.36C180.755 10.912 180.083 10.688 179.281 10.688C178.553 10.688 177.918 10.8653 177.377 11.22C176.835 11.556 176.499 12.06 176.369 12.732H172.869C172.962 11.724 173.298 10.8467 173.877 10.1C174.474 9.35333 175.239 8.784 176.173 8.392C177.106 7.98133 178.151 7.776 179.309 7.776C181.287 7.776 182.846 8.27067 183.985 9.26C185.123 10.2493 185.693 11.6493 185.693 13.46V22H182.641L182.305 19.76C181.894 20.5067 181.315 21.1227 180.569 21.608C179.841 22.0933 178.898 22.336 177.741 22.336ZM178.553 19.536C179.579 19.536 180.373 19.2 180.933 18.528C181.511 17.856 181.875 17.0253 182.025 16.036H178.973C178.021 16.036 177.339 16.2133 176.929 16.568C176.518 16.904 176.313 17.324 176.313 17.828C176.313 18.3693 176.518 18.7893 176.929 19.088C177.339 19.3867 177.881 19.536 178.553 19.536Z" fill="black"/>
<path d="M189.113 22V8.112H192.277L192.585 9.988C193.033 9.316 193.621 8.784 194.349 8.392C195.095 7.98133 195.954 7.776 196.925 7.776C199.071 7.776 200.593 8.60667 201.489 10.268C201.993 9.50267 202.665 8.896 203.505 8.448C204.363 8 205.297 7.776 206.305 7.776C208.115 7.776 209.506 8.31733 210.477 9.4C211.447 10.4827 211.933 12.0693 211.933 14.16V22H208.349V14.496C208.349 13.3013 208.115 12.3867 207.649 11.752C207.201 11.1173 206.501 10.8 205.549 10.8C204.578 10.8 203.794 11.1547 203.197 11.864C202.618 12.5733 202.329 13.5627 202.329 14.832V22H198.745V14.496C198.745 13.3013 198.511 12.3867 198.045 11.752C197.578 11.1173 196.859 10.8 195.889 10.8C194.937 10.8 194.162 11.1547 193.565 11.864C192.986 12.5733 192.697 13.5627 192.697 14.832V22H189.113Z" fill="black"/>
<path d="M75.9998 3C75.9998 4.65685 74.6567 6 72.9998 6C71.343 6 69.9998 4.65685 69.9998 3C69.9998 1.34315 71.343 0 72.9998 0C74.6567 0 75.9998 1.34315 75.9998 3Z" fill="#FFBE21"/>
<path d="M44.9998 3C44.9998 4.65685 43.6567 6 41.9998 6C40.343 6 38.9998 4.65685 38.9998 3C38.9998 1.34315 40.343 0 41.9998 0C43.6567 0 44.9998 1.34315 44.9998 3Z" fill="#FFBE21"/>
</svg>
